# xmcd
#
# Track frame offsets:
#	150
#	10159
#	21500
#	33344
#	45441
#	56290
#	65527
#	78104
#	85786
#	93710
#	102683
#	113205
#	124443
#	135671
#	143972
#	154549
#	166091
#	178433
#	191661
#	200987
#	213114
#	223957
#	233961
#	242801
#
# Disc length: 3383 seconds
#
# Revision: 1
# Processed by: cddbd v1.5.2PL0 Copyright (c) Steve Scherf et al.
# Submitted via: audiograbber 1.83.01
#
DISCID=600d3518
DTITLE=Various Artist - Hillbilly Bop, Boogie And The Honky Tonk Blues (Vol.5 1958-195
DTITLE=9) [CD1]
DYEAR=2012
DGENRE=Country
TTITLE0=Dick Miller - Now I'm Gone
TTITLE1=Bill Alex And The Dixie Drifters - I'm Just A Nobody
TTITLE2=Harold Bailey And The County Drifters - I'm Gonna' Leave
TTITLE3=Eddie Williams - Cigarettes And Coffee Blues
TTITLE4=Gary Bryant - I Fell For You
TTITLE5=Ken Lightner And His Hay Riders - Mary Ann
TTITLE6=The Strangers - Honky Tonk Women
TTITLE7=Billy Parks - Four Leaf Clover
TTITLE8=Don Ward With Millie Reid - Free From The Chains
TTITLE9=Jesse And Lee And The Rocky Mountain Boys - Life Ain't Worth Living
TTITLE10=Roy New And The Trans-Peco Melody Boys - Blue Tomorrow
TTITLE11=Charlie Parker - I Bowed My Head And Cried
TTITLE12=Jimmy Pickard - I Got Another Love
TTITLE13=Lina Lynne And Jack Turner With His Oklahoma Play Boys - Please Be Min
TTITLE13=e
TTITLE14=Houston Barks - She's Gone
TTITLE15=Adrian Roland - I Stepped Out On My Baby
TTITLE16=Hal Andrews And His Escambia County Boys - Darlin'
TTITLE17=Harold Bailey And The County Drifters - I'm A Fool
TTITLE18=Bob Dean And Cindy With The Kountry Kings - Walk, Walk, Walkin' Blues
TTITLE19=Dayton Harp And His Dixieland Driters - Man Crazy Woman
TTITLE20=Jimmy Simpson And His Oil Field Boys - Blue As I Can Be
TTITLE21=Jack Tate And The Sandy Land Play Boys - Casanova
TTITLE22=Jack Kellogg And His Ozark Drifters - Oooooh Daddy
TTITLE23=Chester Smith - Tennessee Saturday Night
EXTD=
EXTT0=
EXTT1=
EXTT2=
EXTT3=
EXTT4=
EXTT5=
EXTT6=
EXTT7=
EXTT8=
EXTT9=
EXTT10=
EXTT11=
EXTT12=
EXTT13=
EXTT14=
EXTT15=
EXTT16=
EXTT17=
EXTT18=
EXTT19=
EXTT20=
EXTT21=
EXTT22=
EXTT23=
PLAYORDER=
